<mxfile host="app.diagrams.net" modified="2024-07-01T19:38:51.667Z" agent="Mozilla/5.0 (Windows NT 10.0; Win64; x64; rv:127.0) Gecko/20100101 Firefox/127.0" version="24.6.3" etag="kbiWNp3UgPATF4HiTGiu" type="github">
  <diagram name="PÃ¡gina-1" id="yUOIz6ZGPAcQ6MeBKxX_">
    <mxGraphModel>
      <root>
        <mxCell id="0" />
        <mxCell id="1" parent="0" />
      </root>
    </mxGraphModel>
  </diagram>
</mxfile>
